PathFileType	4	(X/Y/Z)	RBDS020static.trc
DataRate	CameraRate	NumFrames	NumMarkers	Units	OrigDataRate	OrigDataStartFrame	OrigNumFrames
150.000000	150.000000	4	48	mm	150.000000	56	150
Frame#	Time	L.Ankle			L.Ankle.Medial			L.ASIS			L.GTR			L.Heel.Bottom			L.Heel.Lateral			L.Heel.Top			L.HF			L.Iliac.Crest			L.Knee			L.Knee.Medial			L.MT1			L.MT2			L.MT5			L.PSIS			L.Shank.Bottom.Lateral			L.Shank.Bottom.Medial			L.Shank.Top.Lateral			L.Shank.Top.Medial			L.Thigh.Bottom.Lateral			L.Thigh.Bottom.Medial			L.Thigh.Top.Lateral			L.Thigh.Top.Medial			L.TT			R.Ankle			R.Ankle.Medial			R.ASIS			R.GTR			R.Heel.Bottom			R.Heel.Lateral			R.Heel.Top			R.HF			R.Iliac.Crest			R.Knee			R.Knee.Medial			R.MT1			R.MT2			R.MT5			R.PSIS			R.Shank.Bottom.Lateral			R.Shank.Bottom.Medial			R.Shank.Top.Lateral			R.Shank.Top.Medial			R.Thigh.Bottom.Lateral			R.Thigh.Bottom.Medial			R.Thigh.Top.Lateral			R.Thigh.Top.Medial			R.TT			
		X1	Y1	Z1	X2	Y2	Z2	X3	Y3	Z3	X4	Y4	Z4	X5	Y5	Z5	X6	Y6	Z6	X7	Y7	Z7	X8	Y8	Z8	X9	Y9	Z9	X10	Y10	Z10	X11	Y11	Z11	X12	Y12	Z12	X13	Y13	Z13	X14	Y14	Z14	X15	Y15	Z15	X16	Y16	Z16	X17	Y17	Z17	X18	Y18	Z18	X19	Y19	Z19	X20	Y20	Z20	X21	Y21	Z21	X22	Y22	Z22	X23	Y23	Z23	X24	Y24	Z24	X25	Y25	Z25	X26	Y26	Z26	X27	Y27	Z27	X28	Y28	Z28	X29	Y29	Z29	X30	Y30	Z30	X31	Y31	Z31	X32	Y32	Z32	X33	Y33	Z33	X34	Y34	Z34	X35	Y35	Z35	X36	Y36	Z36	X37	Y37	Z37	X38	Y38	Z38	X39	Y39	Z39	X40	Y40	Z40	X41	Y41	Z41	X42	Y42	Z42	X43	Y43	Z43	X44	Y44	Z44	X45	Y45	Z45	X46	Y46	Z46	X47	Y47	Z47	X48	Y48	Z48	

57	0.3733333333333334	705.0964965820313	110.4394378662109	1037.591918945313	734.6393432617188	116.6679306030273	1116.114624023438	837.6713256835938	1045.034423828125	1098.935668945313	761.2772216796875	937.3461303710938	1040.66943359375	638.8277587890625	39.24850082397461	1085.915405273438	662.0037231445313	61.94665908813477	1042.453125	647.2398071289063	87.27626800537109	1085.568359375	759.591552734375	481.995361328125	1033.769287109375	771.921142578125	1090.842407226563	1072.473510742188	757.5375366210938	540.2114868164063	1044.949340820313	762.4577026367188	523.625	1155.3125	857.3264770507813	62.04977035522461	1118.204467773438	864.4843139648438	68.93364715576172	1074.693237304688	823.5682373046875	48.77384567260742	1011.381591796875	677.234130859375	1070.408081054688	1179.586547851563	713.5858764648438	186.3871917724609	1030.572509765625	675.1993408203125	189.9113616943359	1070.241333007813	711.4097290039063	266.6127319335938	1022.424865722656	675.3193969726563	270.8746948242188	1062.25537109375	759.756103515625	714.716552734375	1024.781860351563	701.8623657226563	710.1826782226563	1068.992431640625	749.8540649414063	824.1401977539063	1024.643188476563	697.35400390625	819.3655395507813	1070.63427734375	810.5620727539063	448.248779296875	1079.239135742188	703.0843505859375	106.4654922485352	1409.5849609375	728.986083984375	119.8113861083984	1329.854614257813	849.8550415039063	1033.640869140625	1342.545776367188	779.7299194335938	938.7296142578125	1392.133666992188	633.7140502929688	40.29419326782227	1367.883911132813	660.967041015625	57.77415084838867	1411.3916015625	641.041259765625	82.87044525146484	1367.328247070313	741.806640625	482.7156066894531	1402.3310546875	794.7678833007813	1084.462036132813	1370.9423828125	743.1771240234375	541.0543823242188	1393.0869140625	756.4918212890625	525.7669677734375	1281.349975585938	845.5848388671875	59.99423217773438	1329.498413085938	860.8536987304688	74.56900787353516	1376.427490234375	825.3765258789063	50.87588882446289	1439.622924804688	684.1539306640625	1070.757446289063	1273.970336914063	710.3096923828125	202.9855804443359	1416.14111328125	669.4632568359375	208.2855834960938	1385.304931640625	713.8892211914063	287.637939453125	1423.576171875	669.4578247070313	288.8830261230469	1393.455688476563	730.9236450195313	677.1051635742188	1398.40185546875	684.9022216796875	675.0698852539063	1343.797241210938	726.0755615234375	787.7332763671875	1396.520751953125	683.6666870117188	785.042236328125	1342.796508789063	797.8347778320313	452.3754272460938	1351.094116210938	
58	0.38	705.1085815429688	110.4341812133789	1037.60595703125	734.6383666992188	116.6640625	1116.1171875	837.6296997070313	1045.031372070313	1098.936157226563	761.2459716796875	937.3548583984375	1040.6630859375	638.8289184570313	39.25527954101563	1085.907592773438	662.0056762695313	61.95162200927734	1042.453857421875	647.23193359375	87.28243255615234	1085.565795898438	759.58642578125	481.99462890625	1033.7822265625	771.8987426757813	1090.836669921875	1072.489501953125	757.5139770507813	540.2149658203125	1044.94970703125	762.4334716796875	523.6183471679688	1155.310180664063	857.3192138671875	62.05226135253906	1118.209716796875	864.4830322265625	68.93447875976563	1074.689208984375	823.5662231445313	48.7681999206543	1011.385864257813	677.2053833007813	1070.416748046875	1179.587524414063	713.577392578125	186.3812408447266	1030.581787109375	675.1922607421875	189.9140319824219	1070.247802734375	711.4055786132813	266.6114501953125	1022.424438476563	675.3051147460938	270.88330078125	1062.256103515625	759.7533569335938	714.7158203125	1024.771606445313	701.840576171875	710.17919921875	1068.992431640625	749.8334350585938	824.1314086914063	1024.64013671875	697.3302001953125	819.3685913085938	1070.635620117188	810.546630859375	448.2484741210938	1079.243896484375	703.0700073242188	106.4703369140625	1409.598754882813	728.9832153320313	119.8120727539063	1329.857543945313	849.8167724609375	1033.650756835938	1342.554931640625	779.6992797851563	938.7283935546875	1392.125244140625	633.724853515625	40.28755569458008	1367.875366210938	660.9677734375	57.77118301391602	1411.3916015625	641.0374755859375	82.87706756591797	1367.326904296875	741.7939453125	482.7184448242188	1402.345581054688	794.7271728515625	1084.459838867188	1370.951538085938	743.1647338867188	541.0450439453125	1393.091552734375	756.479248046875	525.781982421875	1281.351806640625	845.5859985351563	59.98608016967773	1329.506469726563	860.8583374023438	74.56083679199219	1376.428344726563	825.376708984375	50.87654113769531	1439.617309570313	684.1165771484375	1070.750610351563	1273.97265625	710.3156127929688	202.9769592285156	1416.13623046875	669.4580078125	208.287109375	1385.308959960938	713.8843383789063	287.635986328125	1423.582153320313	669.4476318359375	288.8836059570313	1393.461791992188	730.89990234375	677.1055908203125	1398.4072265625	684.882568359375	675.0718383789063	1343.799438476563	726.0458984375	787.7344970703125	1396.522827148438	683.6492309570313	785.0318603515625	1342.78857421875	797.826416015625	452.3749694824219	1351.097900390625	
59	0.3866666666666667	705.0924682617188	110.4363174438477	1037.6083984375	734.633544921875	116.6609725952148	1116.112426757813	837.6008911132813	1045.039184570313	1098.93701171875	761.2106323242188	937.3541259765625	1040.657836914063	638.8303833007813	39.24393844604492	1085.916625976563	662.0095825195313	61.94887161254883	1042.449096679688	647.240478515625	87.27824401855469	1085.562377929688	759.5703125	481.9999389648438	1033.781127929688	771.850341796875	1090.842529296875	1072.48779296875	757.50341796875	540.2216796875	1044.953369140625	762.4068603515625	523.6161499023438	1155.315795898438	857.3260498046875	62.04122161865234	1118.199340820313	864.4884033203125	68.93324279785156	1074.70458984375	823.5630493164063	48.77117538452148	1011.386596679688	677.1686401367188	1070.412963867188	1179.602172851563	713.5701293945313	186.3816986083984	1030.577880859375	675.1878051757813	189.906005859375	1070.251831054688	711.3925170898438	266.6146545410156	1022.427734375	675.2905883789063	270.8773498535156	1062.265869140625	759.723876953125	714.7249145507813	1024.767456054688	701.8255004882813	710.174072265625	1068.990356445313	749.802978515625	824.1365356445313	1024.641845703125	697.3135986328125	819.3621215820313	1070.636840820313	810.5349731445313	448.2409362792969	1079.254638671875	703.078125	106.4648056030273	1409.596801757813	728.9942626953125	119.8095703125	1329.859252929688	849.7855224609375	1033.651489257813	1342.552612304688	779.671875	938.7279663085938	1392.140014648438	633.7192993164063	40.28919219970703	1367.883911132813	660.9638061523438	57.7659797668457	1411.395874023438	641.0364379882813	82.876708984375	1367.33740234375	741.77880859375	482.7152404785156	1402.338134765625	794.6930541992188	1084.460205078125	1370.950317382813	743.1464233398438	541.0496215820313	1393.099487304688	756.4751586914063	525.778564453125	1281.35693359375	845.578369140625	59.98450469970703	1329.505126953125	860.845703125	74.56520080566406	1376.436889648438	825.3829345703125	50.88407135009766	1439.617431640625	684.0713500976563	1070.749877929688	1273.97119140625	710.307373046875	202.9717864990234	1416.134521484375	669.4577026367188	208.2782440185547	1385.318237304688	713.8778076171875	287.6287231445313	1423.578125	669.4430541992188	288.8855285644531	1393.4638671875	730.878662109375	677.1006469726563	1398.40771484375	684.866943359375	675.0659790039063	1343.802612304688	726.0183715820313	787.7276611328125	1396.5322265625	683.6296997070313	785.0316772460938	1342.800903320313	797.810546875	452.3580017089844	1351.11376953125	
60	0.3933333333333334	705.1035766601563	110.4283142089844	1037.592895507813	734.6350708007813	116.654655456543	1116.110595703125	837.553466796875	1045.040405273438	1098.942504882813	761.1952514648438	937.34326171875	1040.662109375	638.8310546875	39.24774551391602	1085.908569335938	661.998779296875	61.94467163085938	1042.460083007813	647.2382202148438	87.28347778320313	1085.566772460938	759.54443359375	481.9991149902344	1033.776733398438	771.8261108398438	1090.837524414063	1072.491821289063	757.4833374023438	540.2275390625	1044.948486328125	762.3943481445313	523.6089477539063	1155.319091796875	857.3173828125	62.04541778564453	1118.207763671875	864.4794311523438	68.93220520019531	1074.703247070313	823.5751342773438	48.77058792114258	1011.391723632813	677.1327514648438	1070.402221679688	1179.601684570313	713.569580078125	186.3818359375	1030.57275390625	675.1866455078125	189.9023132324219	1070.247802734375	711.3872680664063	266.6114807128906	1022.440368652344	675.2855224609375	270.8694458007813	1062.266357421875	759.7216186523438	714.717041015625	1024.767822265625	701.8077392578125	710.1799926757813	1068.988525390625	749.79052734375	824.1390380859375	1024.650634765625	697.2871704101563	819.35400390625	1070.635864257813	810.5189819335938	448.2476501464844	1079.266723632813	703.0687255859375	106.4668960571289	1409.606811523438	728.9901733398438	119.8082275390625	1329.860717773438	849.742919921875	1033.658447265625	1342.558349609375	779.6433715820313	938.725830078125	1392.131591796875	633.7256469726563	40.29407501220703	1367.888061523438	660.9778442382813	57.76502227783203	1411.391845703125	641.0420532226563	82.87293243408203	1367.329956054688	741.7705688476563	482.7065734863281	1402.350219726563	794.653076171875	1084.451538085938	1370.961669921875	743.1412353515625	541.0425415039063	1393.10791015625	756.4574584960938	525.7761840820313	1281.370727539063	845.5882568359375	59.99413299560547	1329.494873046875	860.865478515625	74.57308197021484	1376.435424804688	825.37841796875	50.87919235229492	1439.61865234375	684.0302734375	1070.757690429688	1273.963134765625	710.3093872070313	202.9792175292969	1416.14306640625	669.4512329101563	208.2710266113281	1385.31103515625	713.8648681640625	287.6279602050781	1423.584716796875	669.439697265625	288.8723754882813	1393.469848632813	730.8596801757813	677.0872802734375	1398.397094726563	684.8406982421875	675.0595703125	1343.797973632813	725.9928588867188	787.7288208007813	1396.53564453125	683.6016235351563	785.0364379882813	1342.782958984375	797.810302734375	452.3690185546875	1351.11572265625	
